<svg width="96" height="96" viewBox="0 0 96 96" fill="none" xmlns="http://www.w3.org/2000/svg">
<circle cx="48" cy="48" r="48" fill="#1834A9"/>
<path d="M86.1499 44.1335L69.0337 27.237C67.0547 25.2834 63.8454 25.2834 61.8797 27.237L31.2043 57.5055L21.2422 47.6712L38.3583 30.7747L34.7746 27.237C32.7956 25.2834 29.5863 25.2834 27.6206 27.237L10.5044 44.1335C8.52538 46.0872 8.52538 49.2421 10.5044 51.1957L27.6206 68.0922C29.5997 70.0459 32.8089 70.0459 34.7746 68.0922L65.45 37.8369L75.4122 47.6712L65.45 57.5055L60.4756 52.595L53.3216 59.6704L61.8797 68.1186C63.8588 70.0723 67.068 70.0723 69.0337 68.1186L86.1499 51.2221C88.1156 49.2553 88.1156 46.0872 86.1499 44.1335Z" fill="white"/>
</svg>
